<?xml version="1.0" encoding="utf-8"?>
<!-- Generator: Adobe Illustrator 16.0.0, SVG Export Plug-In . SVG Version: 6.00 Build 0)  -->
<!DOCTYPE svg PUBLIC "-//W3C//DTD SVG 1.1//EN" "http://www.w3.org/Graphics/SVG/1.1/DTD/svg11.dtd">
<svg version="1.1" id="Layer_1" xmlns="http://www.w3.org/2000/svg" xmlns:xlink="http://www.w3.org/1999/xlink" x="0px" y="0px"
	 width="369.061px" height="16.334px" viewBox="0 0 369.061 16.334" enable-background="new 0 0 369.061 16.334"
	 xml:space="preserve">
<g>
	<path fill="#939598" d="M165.738,8.911c-2.116,0.052-2.632,1.213-2.632,1.213s1.006-0.748,2.967-0.748
		c1.961,0,3.561,0.748,5.186,0.722c1.472-0.022,1.936-1.075,1.936-2.047s-0.464-2.024-1.936-2.046
		c-1.625-0.025-3.225,0.722-5.186,0.722c-1.961,0-2.967-0.747-2.967-0.747s0.516,1.16,2.632,1.211
		c2.116,0.053,3.819-0.773,5.471-0.773c1.651,0,1.6,1.635,1.6,1.635s0.051,1.635-1.6,1.635
		C169.556,9.686,167.853,8.859,165.738,8.911z"/>
	<path fill="#939598" d="M161.428,9.323c0.066-0.244-0.249-0.254-0.337-0.903h0.294c0.104,0.21,0.292,0.353,0.507,0.353
		c0.217,0,0.404-0.143,0.507-0.353h0.785c-0.589,0.522-1.498,1.611-1.498,3.38c0,0,1.411-1.099,3.682-1.099
		c2.271,0,3.302,0.817,5.608,0.817c1.958,0,3.044-1.065,3.303-2.607h1.883V7.19h-1.883c-0.259-1.542-1.344-2.606-3.303-2.606
		c-2.306,0-3.336,0.818-5.608,0.818c-2.271,0-3.682-1.1-3.682-1.1c0,1.769,0.909,2.858,1.498,3.379h-0.785
		c-0.104-0.21-0.292-0.352-0.507-0.352c-0.215,0-0.403,0.142-0.507,0.352h-0.294c0.089-0.648,0.404-0.659,0.337-0.903
		c-0.078-0.284-0.62-0.233-0.722,0.232c-0.104,0.464-0.104,1.617,0,2.081C160.808,9.555,161.35,9.608,161.428,9.323z M174.331,7.628
		h1.367v0.844h-1.367c0.009-0.139,0.013-0.278,0.011-0.422C174.344,7.907,174.34,7.767,174.331,7.628z M170.873,6.985
		c-1.291,0.05-2.426,0.772-4.439,0.875c-3.969,0.204-4.155-2.812-4.155-2.812c2.838,1.651,6.091,0.826,7.509,0.567
		c1.42-0.258,2.556-0.284,3.278,0.517c0.721,0.799,0.619,1.918,0.619,1.918s0.103,1.119-0.619,1.918
		c-0.722,0.801-1.857,0.774-3.278,0.517c-1.418-0.258-4.671-1.084-7.509,0.567c0,0,0.186-3.017,4.155-2.813
		c2.013,0.103,3.148,0.826,4.439,0.878c0.798,0.032,1.471-0.275,1.471-1.067C172.344,7.26,171.671,6.952,170.873,6.985z"/>
	<path fill="#939598" d="M197.46,10.097c1.625,0.026,3.225-0.722,5.186-0.722c1.962,0,2.968,0.748,2.968,0.748
		s-0.516-1.162-2.631-1.214c-2.117-0.051-3.82,0.774-5.471,0.774c-1.652,0-1.599-1.634-1.599-1.634s-0.053-1.635,1.599-1.635
		s3.354,0.826,5.471,0.774c2.115-0.051,2.631-1.211,2.631-1.211s-1.006,0.746-2.968,0.746c-1.961,0-3.561-0.746-5.186-0.721
		c-1.471,0.022-1.936,1.074-1.936,2.046C195.525,9.022,195.99,10.074,197.46,10.097z"/>
	<path fill="#939598" d="M197.744,11.518c2.305,0,3.337-0.817,5.608-0.817c2.271,0,3.682,1.099,3.682,1.099
		c0-1.769-0.91-2.858-1.499-3.38h0.785c0.104,0.21,0.292,0.353,0.508,0.353c0.216,0,0.403-0.143,0.507-0.353h0.295
		c-0.089,0.648-0.404,0.659-0.338,0.903c0.079,0.286,0.621,0.232,0.723-0.232c0.104-0.464,0.104-1.616,0-2.081
		c-0.103-0.465-0.645-0.516-0.723-0.232c-0.066,0.245,0.249,0.255,0.338,0.903h-0.295c-0.104-0.21-0.291-0.352-0.507-0.352
		c-0.218,0-0.405,0.142-0.508,0.352h-0.785c0.589-0.521,1.499-1.611,1.499-3.38c0,0-1.41,1.101-3.682,1.101
		c-2.271,0-3.303-0.818-5.608-0.818c-1.959,0-3.044,1.064-3.303,2.606h-1.883v1.72h1.883
		C194.7,10.453,195.785,11.518,197.744,11.518z M195.654,6.132c0.723-0.801,1.858-0.775,3.277-0.517
		c1.419,0.259,4.671,1.084,7.509-0.567c0,0-0.186,3.016-4.154,2.812c-2.012-0.103-3.148-0.825-4.438-0.875
		c-0.799-0.034-1.471,0.274-1.471,1.065c0,0.792,0.672,1.098,1.471,1.067c1.289-0.052,2.426-0.775,4.438-0.878
		c3.968-0.204,4.154,2.813,4.154,2.813c-2.839-1.651-6.09-0.825-7.509-0.567c-1.419,0.257-2.554,0.284-3.277-0.517
		c-0.722-0.799-0.619-1.918-0.619-1.918S194.932,6.932,195.654,6.132z M194.39,8.473h-1.368V7.628h1.368
		c-0.009,0.139-0.013,0.278-0.011,0.422C194.377,8.194,194.382,8.333,194.39,8.473z"/>
	<path fill="#939598" d="M176.989,7.729"/>
	<path fill="#939598" d="M81.52,6.629c11.217,0.206,24.635,0.687,43.077,2.269c18.44,1.583,27.182,1.171,27.182,1.171
		c7.706-0.207,8.394-2.065,8.394-2.065c0.069-4.06-16.79-3.44-34.68-2.821C107.6,5.803,83.86,6.078,81.382,6.078
		c-2.478,0-81.197-1.101-81.197-1.101S70.304,6.422,81.52,6.629z M138.427,5.183c10.598,0,20.163,0.413,20.92,2.203l-55.531-0.827
		C103.816,6.559,127.831,5.183,138.427,5.183z"/>
	<path fill="#939598" d="M217.313,10.069c0,0,8.738,0.413,27.18-1.171c18.442-1.583,31.86-2.063,43.076-2.269
		c11.217-0.207,81.336-1.652,81.336-1.652s-78.721,1.101-81.198,1.101c-2.478,0-26.217-0.274-44.109-0.895
		c-17.892-0.619-34.75-1.238-34.681,2.821C208.917,8.004,209.606,9.862,217.313,10.069z M230.662,5.183
		c10.597,0,34.612,1.376,34.612,1.376l-55.531,0.827C210.499,5.596,220.065,5.183,230.662,5.183z"/>
</g>
<g>
	<polygon fill="#939598" points="178.749,14.629 177.461,0.19 191.607,0.19 190.318,14.627 184.526,16.233 	"/>
	<polygon fill="#939598" points="184.534,15.006 189.215,13.708 190.316,1.371 184.534,1.371 	"/>
	<polygon fill="#FFFFFF" points="184.534,6.727 182.191,6.727 182.029,4.913 184.534,4.913 184.534,3.143 184.529,3.143 
		180.094,3.143 180.136,3.617 180.571,8.497 184.534,8.497 	"/>
	<polygon fill="#FFFFFF" points="184.534,11.326 184.527,11.328 182.554,10.795 182.429,9.383 181.469,9.383 180.65,9.383 
		180.899,12.164 184.526,13.171 184.534,13.168 	"/>
	<polygon fill="#FFFFFF" points="184.529,6.727 184.529,8.497 186.708,8.497 186.503,10.794 184.529,11.328 184.529,13.169 
		188.158,12.164 188.185,11.865 188.602,7.202 188.644,6.727 188.167,6.727 	"/>
	<polygon fill="#FFFFFF" points="184.529,3.143 184.529,4.242 184.529,4.908 184.529,4.913 188.801,4.913 188.801,4.913 
		188.805,4.913 188.842,4.515 188.922,3.617 188.964,3.143 	"/>
</g>
</svg>
