<?xml version="1.0" encoding="UTF-8" standalone="no"?>
<svg
   xmlns:dc="http://purl.org/dc/elements/1.1/"
   xmlns:cc="http://creativecommons.org/ns#"
   xmlns:rdf="http://www.w3.org/1999/02/22-rdf-syntax-ns#"
   xmlns:svg="http://www.w3.org/2000/svg"
   xmlns="http://www.w3.org/2000/svg"
   xmlns:xlink="http://www.w3.org/1999/xlink"
   id="svg2"
   viewBox="0 0 954 936"
   style="shape-rendering:geometricPrecision; text-rendering:geometricPrecision; image-rendering:optimizeQuality; fill-rule:evenodd; clip-rule:evenodd"
   version="1.1"
   height="84.0005mm"
   width="85.6358mm"
   xml:space="preserve"><metadata
     id="metadata58"><rdf:RDF><cc:Work
         rdf:about=""><dc:format>image/svg+xml</dc:format><dc:type
           rdf:resource="http://purl.org/dc/dcmitype/StillImage" /><dc:title></dc:title></cc:Work></rdf:RDF></metadata><defs
     id="defs4"><style
       id="style6"
       type="text/css"><![CDATA[
    .fil6 {fill:none}
    .fil1 {fill:#0070B8;fill-rule:nonzero}
    .fil3 {fill:url(#id0)}
    .fil4 {fill:url(#id1)}
    .fil0 {fill:url(#id2)}
    .fil5 {fill:url(#id3)}
    .fil2 {fill:url(#id4)}
   ]]></style><linearGradient
       y2="710.493"
       x2="365.241"
       y1="386.213"
       x1="40.9594"
       gradientUnits="userSpaceOnUse"
       id="id0"><stop
         id="stop9"
         style="stop-opacity:1; stop-color:#005A91"
         offset="0" /><stop
         id="stop11"
         style="stop-opacity:1; stop-color:#0074B9"
         offset="0.678431" /><stop
         id="stop13"
         style="stop-opacity:1; stop-color:#008EE2"
         offset="1" /></linearGradient><linearGradient
       y2="650.06"
       x2="657.093"
       y1="878.53"
       x1="270.904"
       gradientUnits="userSpaceOnUse"
       id="id1"><stop
         id="stop16"
         style="stop-opacity:1; stop-color:#005A91"
         offset="0" /><stop
         id="stop18"
         style="stop-opacity:1; stop-color:#008EE2"
         offset="1" /></linearGradient><linearGradient
       y2="245.18"
       x2="447.052"
       y1="316.477"
       x1="891.606"
       xlink:href="#id1"
       gradientUnits="userSpaceOnUse"
       id="id2" /><linearGradient
       y2="359.681"
       x2="695.417"
       y1="801.882"
       x1="777.962"
       xlink:href="#id1"
       gradientUnits="userSpaceOnUse"
       id="id3" /><linearGradient
       y2="440.751"
       x2="234.054"
       y1="41.2959"
       x1="449.258"
       xlink:href="#id1"
       gradientUnits="userSpaceOnUse"
       id="id4" /></defs><g
     id="Capa_x0020_1"><metadata
       id="CorelCorpID_0Corel-Layer" /><path
       id="path25"
       d="M912 562l0 0c0,0 104,-142 -15,-318 -85,-125 -274,-143 -378,-143 -43,0 -71,3 -71,3l0 0c0,0 -116,70 -106,167 -4,-1 -7,0 -7,0l-9 24c-1,1 23,-2 33,-3 0,0 0,0 1,0 5,0 12,-1 20,-1 136,-8 620,-19 523,216 0,0 9,36 9,55z"
       class="fil0" /><path
       id="path30"
       d="M389 11c-206,51 -286,372 -286,372 0,0 23,124 109,155 8,14 30,33 30,25 0,-4 2,-13 4,-23 16,-56 186,-634 392,-444 0,0 37,4 55,11 0,0 -70,-107 -219,-107 -26,0 -54,3 -85,11l0 0z"
       class="fil2" /><g
       id="g32" /><path
       id="path35"
       d="M0 437c-6,213 281,376 281,376 0,0 134,12 184,-70 15,-5 37,-12 31,-13 -5,-1 -21,-10 -33,-17 -81,-51 -543,-351 -313,-493 0,0 14,-34 25,-49 0,0 -168,53 -175,266z"
       class="fil3" /><path
       id="path40"
       d="M142 724c0,0 -30,-22 -42,-36 0,0 8,176 212,238 203,61 436,-174 436,-174 0,0 54,-147 -39,-211 0,0 -484,467 -567,183l0 0z"
       class="fil4" /><path
       id="path43"
       d="M594 888c0,0 -31,20 -49,26 0,0 168,54 297,-116 112,-148 20,-394 -5,-455 -57,-29 -138,-44 -218,-50 0,0 0,-1 0,-1 2,6 269,616 -25,596l0 0z"
       class="fil5" /><polygon
       id="polygon46"
       points="448,104 448,104 "
       class="fil6" /><polygon
       id="polygon48"
       points="594,888 594,888 "
       class="fil6" /><path
       id="path50"
       d="M619 292c0,0 0,0 0,0 0,0 0,0 0,0l0 0z"
       class="fil6" /><polygon
       id="polygon52"
       points="142,724 142,724 "
       class="fil6" /><polygon
       id="polygon54"
       points="389,11 389,11 "
       class="fil6" /></g></svg>