<?xml version="1.0" encoding="UTF-8"?>
<!DOCTYPE svg PUBLIC "-//W3C//DTD SVG 1.1//EN" "http://www.w3.org/Graphics/SVG/1.1/DTD/svg11.dtd">
<!-- Creator: CorelDRAW X8 -->
<svg xmlns="http://www.w3.org/2000/svg" xml:space="preserve" width="85.6358mm" height="84.0005mm" version="1.1" style="shape-rendering:geometricPrecision; text-rendering:geometricPrecision; image-rendering:optimizeQuality; fill-rule:evenodd; clip-rule:evenodd" viewBox="0 0 685 672" xmlns:xlink="http://www.w3.org/1999/xlink">
 <defs>
  <style type="text/css">
   <![CDATA[
    .fil5 {fill:none}
    .fil2 {fill:url(#id0)}
    .fil1 {fill:url(#id1)}
    .fil4 {fill:url(#id2)}
    .fil0 {fill:url(#id3)}
    .fil3 {fill:url(#id4)}
   ]]>
  </style>
  <linearGradient id="id0" gradientUnits="userSpaceOnUse" x1="29.4129" y1="277.34" x2="262.279" y2="510.205">
   <stop offset="0" style="stop-opacity:1; stop-color:#005A91"/>
   <stop offset="0.678431" style="stop-opacity:1; stop-color:#0074B9"/>
   <stop offset="1" style="stop-opacity:1; stop-color:#008EE2"/>
  </linearGradient>
  <linearGradient id="id1" gradientUnits="userSpaceOnUse" x1="322.613" y1="29.6546" x2="168.074" y2="316.504">
   <stop offset="0" style="stop-opacity:1; stop-color:#005A91"/>
   <stop offset="1" style="stop-opacity:1; stop-color:#008EE2"/>
  </linearGradient>
  <linearGradient id="id2" gradientUnits="userSpaceOnUse" xlink:href="#id1" x1="558.655" y1="575.831" x2="499.379" y2="258.287">
  </linearGradient>
  <linearGradient id="id3" gradientUnits="userSpaceOnUse" xlink:href="#id1" x1="640.262" y1="227.262" x2="321.028" y2="176.064">
  </linearGradient>
  <linearGradient id="id4" gradientUnits="userSpaceOnUse" xlink:href="#id1" x1="194.536" y1="630.873" x2="471.858" y2="466.808">
  </linearGradient>
 </defs>
 <g id="Capa_x0020_1">
  <metadata id="CorelCorpID_0Corel-Layer"/>
  <path class="fil0" d="M655 404l0 0c0,0 75,-102 -11,-229 -61,-89 -197,-103 -271,-103 -31,0 -51,3 -51,3l0 0c0,0 -84,50 -77,119 -2,0 -5,0 -5,0l-6 18c0,0 16,-1 23,-2 1,0 1,0 1,0 4,0 9,-1 15,-1 97,-6 445,-14 375,155 0,0 7,26 7,40z"/>
  <path class="fil1" d="M280 8c-149,37 -206,267 -206,267 0,0 17,89 78,111 6,10 22,24 22,18 0,-3 1,-9 3,-16 11,-41 133,-456 281,-319 0,0 27,3 40,8 0,0 -51,-77 -158,-77 -18,0 -38,2 -60,8l0 0z"/>
  <path class="fil2" d="M0 314c-5,153 202,270 202,270 0,0 96,8 132,-51 10,-3 26,-8 22,-9 -3,-1 -15,-7 -23,-12 -59,-36 -391,-252 -225,-354 0,0 9,-24 17,-35 0,0 -120,38 -125,191z"/>
  <path class="fil3" d="M102 520c0,0 -22,-16 -30,-26 0,0 5,126 152,171 146,44 313,-125 313,-125 0,0 39,-106 -28,-152 0,0 -347,336 -407,132l0 0z"/>
  <path class="fil4" d="M427 638c0,0 -23,14 -36,19 0,0 121,38 213,-84 81,-106 15,-283 -3,-327 -41,-21 -99,-31 -157,-36 0,0 0,0 0,0 2,4 193,442 -17,428l0 0z"/>
  <polygon class="fil5" points="322,75 322,75 "/>
  <polygon class="fil5" points="427,638 427,638 "/>
  <path class="fil5" d="M444 210c0,0 0,0 0,0 0,0 0,0 0,0l0 0z"/>
  <polygon class="fil5" points="102,520 102,520 "/>
  <polygon class="fil5" points="280,8 280,8 "/>
 </g>
</svg>