<?xml version="1.0" encoding="UTF-8" standalone="no"?>
<svg
   xmlns:dc="http://purl.org/dc/elements/1.1/"
   xmlns:cc="http://creativecommons.org/ns#"
   xmlns:rdf="http://www.w3.org/1999/02/22-rdf-syntax-ns#"
   xmlns:svg="http://www.w3.org/2000/svg"
   xmlns="http://www.w3.org/2000/svg"
   version="1.1"
   id="svg4216"
   viewBox="0 0 23.499992 23.499992"
   height="6.6322198mm"
   width="6.6322198mm">
  <defs
     id="defs4218" />
  <metadata
     id="metadata4221">
    <rdf:RDF>
      <cc:Work
         rdf:about="">
        <dc:format>image/svg+xml</dc:format>
        <dc:type
           rdf:resource="http://purl.org/dc/dcmitype/StillImage" />
        <dc:title></dc:title>
      </cc:Work>
    </rdf:RDF>
  </metadata>
  <g
     transform="translate(2241.829,396.22876)"
     id="layer1">
    <path
       id="path67"
       d="m -2230.079,-396.22877 0,0 0,0 c -5.6,0 -10.2,1.5 -10.2,3.4 0,0.5 1.2,7.6 1.7,10.4 0.2,1.3 3.5,3.1 8.5,3.1 l 0,0 0,0 c 5,0 8.2,-1.8 8.5,-3.1 0.5,-2.8 1.7,-9.9 1.7,-10.4 -0.1,-1.9 -4.6,-3.4 -10.2,-3.4 z m 0,14.6 c -1.8,0 -3.2,-1.4 -3.2,-3.2 0,-1.8 1.4,-3.2 3.2,-3.2 1.8,0 3.2,1.4 3.2,3.2 0,1.7 -1.4,3.2 -3.2,3.2 z m 0,-10.2 c -3.6,0 -6.5,-0.6 -6.5,-1.4 0,-0.8 2.9,-1.4 6.5,-1.4 3.6,0 6.5,0.6 6.5,1.4 0,0.8 -2.9,1.4 -6.5,1.4 z"
       style="fill:#000000;fill-opacity:1" />
    <path
       id="path69"
       d="m -2222.6986,-379.72877 c -0.2,0 -0.3,0.1 -0.3,0.1 0,0 -2.5,2 -7,2 -4.5,0 -7,-2 -7,-2 0,0 -0.2,-0.1 -0.3,-0.1 -0.2,0 -0.4,0.1 -0.4,0.4 0,0 0,0.1 0,0.1 0.4,2.1 0.7,3.6 0.7,3.8 0.3,1.5 3.3,2.7 6.9,2.7 l 0,0 0,0 0,0 0,0 c 3.6,0 6.6,-1.2 6.9,-2.7 0,-0.2 0.3,-1.7 0.7,-3.8 0,0 0,-0.1 0,-0.1 0.1,-0.2 0,-0.4 -0.2,-0.4 z"
       style="fill:#000000;fill-opacity:1" />
    <circle
       id="circle71"
       r="1.6"
       cy="-384.92877"
       cx="-2230.0791"
       style="fill:#000000;fill-opacity:1" />
  </g>
</svg>
