<?xml version="1.0" encoding="UTF-8" standalone="no"?>
<svg
   xmlns:sketch="http://www.bohemiancoding.com/sketch/ns"
   xmlns:dc="http://purl.org/dc/elements/1.1/"
   xmlns:cc="http://creativecommons.org/ns#"
   xmlns:rdf="http://www.w3.org/1999/02/22-rdf-syntax-ns#"
   xmlns:svg="http://www.w3.org/2000/svg"
   xmlns="http://www.w3.org/2000/svg"
   id="svg2"
   version="1.1"
   viewBox="0 0 210 194"
   height="194px"
   width="210px">
  <metadata
     id="metadata26">
    <rdf:RDF>
      <cc:Work
         rdf:about="">
        <dc:format>image/svg+xml</dc:format>
        <dc:type
           rdf:resource="http://purl.org/dc/dcmitype/StillImage" />
        <dc:title>Group</dc:title>
      </cc:Work>
    </rdf:RDF>
  </metadata>
  <!-- Generator: Sketch 3.3.2 (12043) - http://www.bohemiancoding.com/sketch -->
  <title
     id="title4">Group</title>
  <desc
     id="desc6">Created with Sketch.</desc>
  <defs
     id="defs8" />
  <g
     sketch:type="MSPage"
     fill-rule="evenodd"
     fill="none"
     stroke-width="1"
     stroke="none"
     id="Page-1">
    <g
       sketch:type="MSLayerGroup"
       id="Fill-1-+-Group-24">
      <g
         sketch:type="MSShapeGroup"
         id="Group-24">
        <g
           id="Group">
          <path
             style="fill:#000000;fill-opacity:1"
             fill="#E24329"
             id="Fill-4"
             d="M105.0614,193.655 L105.0614,193.655 L143.7014,74.734 L66.4214,74.734 L105.0614,193.655 L105.0614,193.655 Z" />
          <path
             fill="#FC6D26"
             id="Fill-6" />
          <path
             style="fill:#000000;fill-opacity:0.7833935"
             fill="#FC6D26"
             id="Fill-8"
             d="M105.0614,193.6548 L66.4214,74.7338 L12.2684,74.7338 L105.0614,193.6548 Z" />
          <path
             fill="#FC6D26"
             id="Fill-10" />
          <path
             style="fill:#000000;fill-opacity:0.60784316"
             fill="#FCA326"
             id="Fill-12"
             d="M12.2685,74.7341 L12.2685,74.7341 L0.5265,110.8731 C-0.5445,114.1691 0.6285,117.7801 3.4325,119.8171 L105.0615,193.6551 L12.2685,74.7341 Z" />
          <path
             fill="#FC6D26"
             id="Fill-14" />
          <path
             style="fill:#000000;fill-opacity:1"
             fill="#E24329"
             id="Fill-16"
             d="M12.2685,74.7342 L66.4215,74.7342 L43.1485,3.1092 C41.9515,-0.5768 36.7375,-0.5758 35.5405,3.1092 L12.2685,74.7342 Z" />
          <path
             style="fill:#000000;fill-opacity:0.7833935"
             fill="#FC6D26"
             id="Fill-18"
             d="M105.0614,193.6548 L143.7014,74.7338 L197.8544,74.7338 L105.0614,193.6548 Z" />
          <path
             style="fill:#000000;fill-opacity:0.60784316"
             fill="#FCA326"
             id="Fill-20"
             d="M197.8544,74.7341 L197.8544,74.7341 L209.5964,110.8731 C210.6674,114.1691 209.4944,117.7801 206.6904,119.8171 L105.0614,193.6551 L197.8544,74.7341 Z" />
          <path
             style="fill:#000000;fill-opacity:1"
             fill="#E24329"
             id="Fill-22"
             d="M197.8544,74.7342 L143.7014,74.7342 L166.9744,3.1092 C168.1714,-0.5768 173.3854,-0.5758 174.5824,3.1092 L197.8544,74.7342 Z" />
        </g>
      </g>
    </g>
  </g>
</svg>
