<?xml version="1.0" encoding="UTF-8"?>
<svg id="svg2" width="512" height="512" version="1.1" viewBox="0 0 512 512" xml:space="preserve" xmlns="http://www.w3.org/2000/svg" xmlns:cc="http://creativecommons.org/ns#" xmlns:dc="http://purl.org/dc/elements/1.1/" xmlns:rdf="http://www.w3.org/1999/02/22-rdf-syntax-ns#" xmlns:xlink="http://www.w3.org/1999/xlink"><metadata id="metadata8"><rdf:RDF><cc:Work rdf:about=""><dc:format>image/svg+xml</dc:format><dc:type rdf:resource="http://purl.org/dc/dcmitype/StillImage"/><dc:title/></cc:Work></rdf:RDF></metadata><defs id="defs6"><clipPath id="clipPath28"><path id="path26" d="m0 807h712v-807h-712z"/></clipPath><clipPath id="clipPath36"><path id="path34" d="m163.75 548.25h384.5v-384.5h-384.5z"/></clipPath><clipPath id="clipPath40"><path id="path38" d="m163.75 548.25h384.5v-384.5h-384.5z"/></clipPath><mask id="mask42" x="0" y="0" width="1" height="1" maskUnits="userSpaceOnUse"><g id="g58"><g id="g56" clip-path="url(#clipPath36)"><path id="path44" d="m163.75 548.25h384.5v-384.5h-384.5z"/><g id="g54"><g id="g52"><g id="g50" clip-path="url(#clipPath40)"><path id="path48" d="m99.917 612.08h512.67v-512.67h-512.67z" fill="#fff"/></g></g></g></g></g></mask><clipPath id="clipPath66"><path id="path64" d="m163.75 548.25h384.5v-384.5h-384.5z"/></clipPath><clipPath id="clipPath70"><path id="path68" d="m164 548h384v-384h-384z"/></clipPath><clipPath id="clipPath74"><path id="path72" d="m164.07 547.97h383.93v-384.01h-383.93z"/></clipPath><clipPath id="clipPath78"><path id="path76" d="m164.02 547.93h383.82v-383.75h-383.82z"/></clipPath><clipPath id="clipPath82"><path id="path80" d="m299.75 548.25h0.5v-384.5h-0.5z"/></clipPath><clipPath id="clipPath86"><path id="path84" d="m355.75 548.25h0.5v-384.5h-0.5z"/></clipPath><clipPath id="clipPath90"><path id="path88" d="m411.83 548.25h0.5v-384.5h-0.5z"/></clipPath><clipPath id="clipPath94"><path id="path92" d="m163.9 412.1h383.93v-0.2h-383.93z"/></clipPath><clipPath id="clipPath98"><path id="path96" d="m163.9 356.1h383.93v-0.2h-383.93z"/></clipPath><clipPath id="clipPath102"><path id="path100" d="m163.75 300.25h384.23v-0.5h-384.23z"/></clipPath><linearGradient id="id1" x1="270.9" x2="657.09" y1="878.53" y2="650.06" gradientUnits="userSpaceOnUse"><stop id="stop16" stop-color="#005A91" offset="0"/><stop id="stop18" stop-color="#008EE2" offset="1"/></linearGradient><linearGradient id="linearGradient9098" x1="891.61" x2="447.05" y1="316.48" y2="245.18" gradientUnits="userSpaceOnUse" xlink:href="#id1"/><linearGradient id="linearGradient9100" x1="449.26" x2="234.05" y1="41.296" y2="440.75" gradientUnits="userSpaceOnUse" xlink:href="#id1"/><linearGradient id="linearGradient9102" x1="40.959" x2="365.24" y1="386.21" y2="710.49" gradientUnits="userSpaceOnUse"><stop id="stop9" stop-color="#005A91" offset="0"/><stop id="stop11" stop-color="#0074B9" offset=".67843"/><stop id="stop13" stop-color="#008EE2" offset="1"/></linearGradient><linearGradient id="linearGradient9104" x1="270.9" x2="657.09" y1="878.53" y2="650.06" gradientUnits="userSpaceOnUse" xlink:href="#id1"/><linearGradient id="linearGradient9106" x1="777.96" x2="695.42" y1="801.88" y2="359.68" gradientUnits="userSpaceOnUse" xlink:href="#id1"/></defs><g id="g10" transform="matrix(1.3333 0 0 -1.3333 0 512)"><path id="path20" d="m-2e-7 384h384v-384h-384z" fill="#212b3e"/><g id="g22" transform="matrix(.74902 0 0 .74902 -74.653 -74.653)" display="none"><g id="g24" clip-path="url(#clipPath28)"><g id="g30"><g id="g60" mask="url(#mask42)"><g id="g234"><g id="g232" clip-path="url(#clipPath66)"><g id="g112"><g id="g110"><g id="g108" clip-path="url(#clipPath70)" opacity=".10001"><path id="path106" d="m164 548h384v-384h-384z" fill="#66ddb7"/></g></g></g><path id="path114" d="m164 548h384v-384h-384z" fill="none" stroke="#65dcb7" stroke-width=".5"/><g id="g118" transform="translate(183 484)"><path id="path116" d="m0 0h345.99c1.659 0 3.004-1.345 3.004-3.004v-249.99c0-1.659-1.345-3.004-3.004-3.004h-345.99c-1.659 0-3.004 1.345-3.004 3.004v249.99c0 1.659 1.345 3.004 3.004 3.004z" fill="none" stroke="#65dcb7" stroke-width=".5"/></g><g id="g122" transform="translate(231 532)"><path id="path120" d="m0 0h249.99c1.659 0 3.004-1.345 3.004-3.004v-345.99c0-1.659-1.345-3.004-3.004-3.004h-249.99c-1.659 0-3.004 1.345-3.004 3.004v345.99c0 1.659 1.345 3.004 3.004 3.004z" fill="none" stroke="#65dcb7" stroke-width=".5"/></g><g id="g126" transform="translate(207 508)"><path id="path124" d="m0 0h297.99c1.659 0 3.004-1.345 3.004-3.004v-297.99c0-1.659-1.345-3.004-3.004-3.004h-297.99c-1.659 0-3.004 1.345-3.004 3.004v297.99c0 1.659 1.345 3.004 3.004 3.004z" fill="none" stroke="#65dcb7" stroke-width=".5"/></g><g id="g130" transform="translate(356,532)"><path id="path128" d="m0 0c97.202 0 176-78.798 176-176s-78.798-176-176-176-176 78.798-176 176 78.798 176 176 176z" fill="none" stroke="#65dcb7" stroke-width=".5"/></g><g id="g134" transform="translate(356,436)"><path id="path132" d="m0 0c44.183 0 80-35.817 80-80s-35.817-80-80-80-80 35.817-80 80 35.817 80 80 80z" fill="none" stroke="#65dcb7" stroke-width=".5"/></g><g id="g146"><g id="g144"><g id="g142" clip-path="url(#clipPath74)" opacity=".3"><g id="g140" transform="translate(164.42 164.31)"><path id="path138" d="m0 0 383.23 383.3" fill="none" stroke="#65dcb7" stroke-linecap="square" stroke-width=".5"/></g></g></g></g><g id="g158"><g id="g156"><g id="g154" clip-path="url(#clipPath78)" opacity=".3"><g id="g152" transform="translate(547.48 164.53)"><path id="path150" d="m0 0-383.11 383.05" fill="none" stroke="#65dcb7" stroke-linecap="square" stroke-width=".5"/></g></g></g></g><g id="g170"><g id="g168"><g id="g166" clip-path="url(#clipPath82)" opacity=".3"><g id="g164" transform="translate(300,548)"><path id="path162" d="m0 0v-384" fill="none" stroke="#65dcb7" stroke-linecap="square" stroke-width=".5"/></g></g></g></g><g id="g182"><g id="g180"><g id="g178" clip-path="url(#clipPath86)" opacity=".3"><g id="g176" transform="translate(356,548)"><path id="path174" d="m0 0v-384" fill="none" stroke="#65dcb7" stroke-linecap="square" stroke-width=".5"/></g></g></g></g><g id="g194"><g id="g192"><g id="g190" clip-path="url(#clipPath90)" opacity=".3"><g id="g188" transform="translate(412.08 548)"><path id="path186" d="m0 0v-384" fill="none" stroke="#65dcb7" stroke-linecap="square" stroke-width=".5"/></g></g></g></g><g id="g206"><g id="g204"><g id="g202" clip-path="url(#clipPath94)" opacity=".3"><g id="g200" transform="translate(547.73 412)"><path id="path198" d="m0 0h-383.73" fill="none" stroke="#65dcb7" stroke-linecap="square" stroke-width=".2"/></g></g></g></g><g id="g218"><g id="g216"><g id="g214" clip-path="url(#clipPath98)" opacity=".3"><g id="g212" transform="translate(547.73 356)"><path id="path210" d="m0 0h-383.73" fill="none" stroke="#65dcb7" stroke-linecap="square" stroke-width=".2"/></g></g></g></g><g id="g230"><g id="g228"><g id="g226" clip-path="url(#clipPath102)" opacity=".3"><g id="g224" transform="translate(547.73 300)"><path id="path222" d="m0 0h-383.73" fill="none" stroke="#65dcb7" stroke-linecap="square" stroke-width=".5"/></g></g></g></g></g></g></g></g></g></g><g id="g8540" transform="matrix(.30183 0 0 -.30183 48.028 333.27)" clip-rule="evenodd" fill-rule="evenodd" image-rendering="optimizeQuality" shape-rendering="geometricPrecision"><path id="path25" class="fil0" d="m912 562s104-142-15-318c-85-125-274-143-378-143-43 0-71 3-71 3s-116 70-106 167c-4-1-7 0-7 0l-9 24c-1 1 23-2 33-3h1c5 0 12-1 20-1 136-8 620-19 523 216 0 0 9 36 9 55z" fill="url(#linearGradient9098)"/><path id="path30" class="fil2" d="m389 11c-206 51-286 372-286 372s23 124 109 155c8 14 30 33 30 25 0-4 2-13 4-23 16-56 186-634 392-444 0 0 37 4 55 11 0 0-70-107-219-107-26 0-54 3-85 11z" fill="url(#linearGradient9100)"/><path id="path35" class="fil3" d="m0 437c-6 213 281 376 281 376s134 12 184-70c15-5 37-12 31-13-5-1-21-10-33-17-81-51-543-351-313-493 0 0 14-34 25-49 0 0-168 53-175 266z" fill="url(#linearGradient9102)"/><path id="path40" class="fil4" d="m142 724s-30-22-42-36c0 0 8 176 212 238 203 61 436-174 436-174s54-147-39-211c0 0-484 467-567 183z" fill="url(#linearGradient9104)"/><path id="path43" class="fil5" d="m594 888s-31 20-49 26c0 0 168 54 297-116 112-148 20-394-5-455-57-29-138-44-218-50v-1c2 6 269 616-25 596z" fill="url(#linearGradient9106)"/><path id="path50" class="fil6" d="m619 292z" fill="none"/></g></g></svg>
