<?xml version="1.0" encoding="utf-8"?>
<!DOCTYPE svg PUBLIC "-//W3C//DTD SVG 1.1//EN" "http://www.w3.org/Graphics/SVG/1.1/DTD/svg11.dtd" [
	<!ENTITY ns_flows "http://ns.adobe.com/Flows/1.0/">
]>
<svg version="1.1"
	 xmlns="http://www.w3.org/2000/svg" xmlns:xlink="http://www.w3.org/1999/xlink" xmlns:a="http://ns.adobe.com/AdobeSVGViewerExtensions/3.0/"
	 x="0px" y="0px" width="105px" height="105px" viewBox="0 0 105 105" overflow="visible" enable-background="new 0 0 105 105"
	 xml:space="preserve">
<defs>
</defs>
<path fill="#FFFFFF" d="M104.7,91.54c0,7.32-5.94,13.25-13.25,13.25H13.25C5.93,104.79,0,98.86,0,91.54V13.35
	C0,6.04,5.93,0.1,13.25,0.1h78.19c7.32,0,13.25,5.93,13.25,13.25V91.54z"/>
<linearGradient id="SVGID_1_" gradientUnits="userSpaceOnUse" x1="52.5513" y1="34.25" x2="52.5513" y2="105.0005">
	<stop  offset="0" style="stop-color:#F89E3A"/>
	<stop  offset="1" style="stop-color:#C56A23"/>
</linearGradient>
<path fill="url(#SVGID_1_)" d="M104.9,91.75c0,7.32-5.93,13.25-13.25,13.25H13.46c-7.32,0-13.25-5.93-13.25-13.25v-57.5
	c0,0,22.29,3.88,52.35,3.67c28.22-0.21,52.35-3.67,52.35-3.67V91.75z"/>
<path opacity="0.5" fill="#231F20" d="M91.65,104.9H13.46c-7.36,0-13.35-5.99-13.35-13.35V13.35C0.1,5.99,6.09,0,13.46,0h78.19
	C99.01,0,105,5.99,105,13.35v78.19C105,98.91,99.01,104.9,91.65,104.9z M13.46,0.2C6.21,0.2,0.31,6.1,0.31,13.35v78.19
	c0,7.25,5.9,13.15,13.15,13.15h78.19c7.25,0,13.15-5.9,13.15-13.15V13.35c0-7.25-5.9-13.15-13.15-13.15H13.46z"/>
<path fill-rule="evenodd" clip-rule="evenodd" fill="#231F20" d="M61.44,27.59c-4.27,3.23-10.47,4.95-15.8,4.95
	c-7.48,0-14.21-2.83-19.31-7.55c-0.4-0.37-0.04-0.88,0.44-0.59c5.5,3.28,12.29,5.26,19.32,5.26c4.74,0,9.94-1.01,14.73-3.09
	C61.54,26.25,62.14,27.05,61.44,27.59z"/>
<path fill-rule="evenodd" clip-rule="evenodd" fill="#231F20" d="M63.21,25.51c-0.55-0.72-3.61-0.34-4.99-0.17
	c-0.42,0.05-0.48-0.32-0.11-0.59c2.45-1.76,6.46-1.25,6.92-0.66c0.47,0.6-0.12,4.72-2.42,6.68c-0.35,0.3-0.69,0.14-0.53-0.26
	C62.61,29.18,63.76,26.22,63.21,25.51z"/>
<path fill-rule="evenodd" clip-rule="evenodd" fill="#231F20" d="M58.12,12.3v-1.71c0-0.26,0.19-0.43,0.42-0.43h7.48
	c0.24,0,0.43,0.18,0.43,0.43l0,1.47c0,0.25-0.2,0.57-0.56,1.08l-3.88,5.67c1.44-0.03,2.96,0.19,4.27,0.94
	c0.29,0.17,0.38,0.42,0.4,0.67v1.83c0,0.25-0.27,0.54-0.55,0.39c-2.3-1.24-5.36-1.37-7.9,0.01c-0.26,0.14-0.54-0.14-0.54-0.4v-1.74
	c0-0.28,0.01-0.75,0.28-1.18l4.49-6.61h-3.91C58.31,12.73,58.12,12.55,58.12,12.3z"/>
<path fill-rule="evenodd" clip-rule="evenodd" fill="#231F20" d="M31.03,22.99h-2.28c-0.22-0.01-0.39-0.18-0.41-0.39l0-11.98
	c0-0.24,0.2-0.43,0.44-0.43l2.12,0c0.22,0.01,0.4,0.19,0.41,0.4v1.57h0.04c0.55-1.51,1.59-2.22,3-2.22c1.42,0,2.32,0.71,2.95,2.22
	c0.55-1.51,1.81-2.22,3.15-2.22c0.96,0,2,0.4,2.63,1.31c0.72,1.01,0.57,2.47,0.57,3.76l0,7.56c0,0.24-0.2,0.43-0.44,0.43h-2.27
	c-0.23-0.02-0.41-0.2-0.41-0.43v-6.35c0-0.5,0.04-1.77-0.06-2.24c-0.17-0.81-0.68-1.03-1.34-1.03c-0.55,0-1.13,0.38-1.36,0.98
	c-0.23,0.61-0.21,1.61-0.21,2.29v6.35c0,0.24-0.2,0.43-0.44,0.43h-2.27c-0.23-0.02-0.41-0.2-0.41-0.43l0-6.35
	c0-1.34,0.21-3.3-1.4-3.3c-1.64,0-1.57,1.92-1.57,3.3l0,6.35C31.47,22.8,31.27,22.99,31.03,22.99z"/>
<path fill-rule="evenodd" clip-rule="evenodd" fill="#231F20" d="M72.69,9.93c3.38,0,5.21,2.97,5.21,6.76
	c0,3.66-2.02,6.56-5.21,6.56c-3.31,0-5.12-2.98-5.12-6.68C67.57,12.83,69.4,9.93,72.69,9.93z M72.71,12.38
	c-1.68,0-1.79,2.34-1.79,3.81c0,1.46-0.02,4.59,1.76,4.59c1.76,0,1.85-2.52,1.85-4.06c0-1.01-0.04-2.22-0.34-3.18
	C73.94,12.7,73.44,12.38,72.71,12.38z"/>
<path fill-rule="evenodd" clip-rule="evenodd" fill="#231F20" d="M82.28,22.99h-2.27c-0.23-0.02-0.41-0.2-0.41-0.43l0-11.99
	c0.02-0.22,0.21-0.39,0.44-0.39l2.11,0c0.2,0.01,0.36,0.15,0.41,0.34v1.83h0.04c0.64-1.64,1.53-2.42,3.1-2.42
	c1.02,0,2.02,0.38,2.66,1.41c0.6,0.96,0.6,2.57,0.6,3.73v7.54c-0.03,0.21-0.21,0.38-0.44,0.38h-2.28c-0.21-0.01-0.38-0.17-0.4-0.38
	v-6.5c0-1.31,0.15-3.23-1.43-3.23c-0.55,0-1.06,0.38-1.32,0.96c-0.32,0.73-0.36,1.46-0.36,2.27v6.45
	C82.71,22.8,82.52,22.99,82.28,22.99z"/>
<path fill-rule="evenodd" clip-rule="evenodd" fill="#231F20" d="M52.36,17.27c0,0.91,0.02,1.67-0.42,2.48
	c-0.36,0.66-0.94,1.06-1.58,1.06c-0.87,0-1.38-0.68-1.38-1.69c0-1.99,1.74-2.35,3.39-2.35V17.27z M54.65,22.96
	c-0.15,0.14-0.37,0.15-0.54,0.05c-0.76-0.64-0.89-0.94-1.3-1.56c-1.25,1.31-2.13,1.7-3.75,1.7c-1.92,0-3.41-1.21-3.41-3.64
	c0-1.9,1-3.18,2.43-3.81c1.24-0.56,2.96-0.66,4.28-0.81v-0.3c0-0.56,0.04-1.21-0.28-1.69c-0.28-0.43-0.81-0.61-1.28-0.61
	c-0.87,0-1.64,0.46-1.83,1.4c-0.04,0.21-0.19,0.42-0.4,0.43l-2.21-0.25c-0.19-0.04-0.39-0.2-0.34-0.49
	c0.51-2.74,2.92-3.57,5.09-3.57c1.11,0,2.56,0.3,3.43,1.16c1.11,1.06,1,2.48,1,4.02v3.64c0,1.09,0.45,1.57,0.86,2.17
	c0.14,0.21,0.18,0.46-0.01,0.62C55.94,21.81,55.11,22.55,54.65,22.96L54.65,22.96z"/>
<path fill-rule="evenodd" clip-rule="evenodd" fill="#231F20" d="M22.72,17.27c0,0.91,0.02,1.67-0.43,2.48
	c-0.36,0.66-0.94,1.06-1.58,1.06c-0.87,0-1.38-0.68-1.38-1.69c0-1.99,1.74-2.35,3.39-2.35V17.27z M25.01,22.96
	c-0.15,0.14-0.37,0.15-0.54,0.05c-0.76-0.64-0.89-0.94-1.31-1.56c-1.25,1.31-2.13,1.7-3.75,1.7c-1.92,0-3.41-1.21-3.41-3.64
	c0-1.9,1-3.18,2.43-3.81c1.23-0.56,2.96-0.66,4.28-0.81v-0.3c0-0.56,0.04-1.21-0.28-1.69c-0.28-0.43-0.81-0.61-1.28-0.61
	c-0.87,0-1.64,0.46-1.83,1.4c-0.04,0.21-0.19,0.42-0.4,0.43l-2.21-0.25c-0.19-0.04-0.39-0.2-0.34-0.49
	c0.51-2.74,2.92-3.57,5.09-3.57c1.11,0,2.55,0.3,3.43,1.16c1.11,1.06,1,2.48,1,4.02v3.64c0,1.09,0.44,1.57,0.86,2.17
	c0.15,0.21,0.18,0.46-0.01,0.62C26.3,21.81,25.47,22.55,25.01,22.96L25.01,22.96z"/>
<circle fill="#182B72" cx="23.04" cy="67.48" r="18.51"/>
<path fill="#FFFFFF" d="M24.08,60.41h-4.44v16.45c0,0-0.2,0.32-0.59-0.21c-0.19-0.26-5.42-8.02-5.42-8.02s-0.85-0.85-2.09-0.52
	c-1.24,0.33-1.7,1.17-1.11,2.22c0.59,1.04,4.57,10.51,9.73,13.12c3.67,1.86,8.03,1.17,10.51,0c2.2-1.04,5.63-3.59,5.89-6.98
	c0.26-3.4-0.01-6.4-0.01-6.4h-2.31v4.11h-1.48v-6.01h-2.61v4.91h-1.56v-6.41h-2.94v6.08h-1.43L24.08,60.41z"/>
<rect x="11.8" y="60.41" fill="#FFFFFF" width="3.72" height="2.29"/>
<rect x="28.42" y="60.41" fill="#FFFFFF" width="3.72" height="2.29"/>
<rect x="19.9" y="52.19" fill="#FFFFFF" width="3.85" height="4.31"/>
<polygon fill="#FFFFFF" points="16.57,58.58 17.94,57.21 15.4,54.6 13.87,55.97 "/>
<polygon fill="#FFFFFF" points="27.55,58.18 26.38,56.6 29.12,54.4 30.25,55.97 "/>
<path fill="#FFFFFF" d="M47.48,59.36c0.97-0.51,2.33-1.2,4.52-1.2c4.43,0,5.46,2.47,5.46,6.56v7.13c0,1.17-0.1,2.25-0.01,2.88h-3.1
	c-0.07-0.75,0.01-1.42,0.01-2.22H54.3c-0.86,1.33-1.94,2.47-3.99,2.47c-2.22,0-4.27-1.74-4.27-4.79c0-4.44,3.16-5.55,7.51-5.55h0.69
	v-0.6c0-1.62-0.69-3.11-2.66-3.11c-1.72,0-3.24,0.95-3.91,1.58L47.48,59.36z M54.24,66.74h-0.31c-2.94,0-4.68,0.7-4.68,3.07
	c0,1.49,0.86,2.5,2.19,2.5c2.05,0,2.8-1.74,2.8-4.66V66.74z"/>
<path fill="#FFFFFF" d="M50.31,75.08c-2.17,0-4.37-1.68-4.37-4.89c0-5.01,4.07-5.65,7.61-5.65h0.59v-0.5c0-0.9-0.25-3-2.56-3
	c-1.74,0-3.23,0.98-3.84,1.56c-0.03,0.03-0.07,0.04-0.11,0.02c-0.04-0.01-0.06-0.05-0.06-0.09l-0.19-3.17c0-0.04,0.02-0.08,0.05-0.1
	c0.93-0.48,2.33-1.22,4.56-1.22c4.62,0,5.56,2.66,5.56,6.66v7.13c0,0.44-0.01,0.85-0.03,1.26c-0.02,0.66-0.04,1.22,0.01,1.62
	c0,0.03,0,0.06-0.02,0.08c-0.02,0.02-0.05,0.04-0.08,0.04h-3.1c-0.05,0-0.1-0.04-0.1-0.09c-0.04-0.49-0.03-0.94-0.01-1.42
	c0.01-0.18,0.01-0.36,0.02-0.55C53.46,73.95,52.35,75.08,50.31,75.08z M53.55,64.75c-5.12,0-7.41,1.68-7.41,5.44
	c0,3.08,2.09,4.69,4.16,4.69c2.06,0,3.09-1.17,3.9-2.43c0.02-0.03,0.05-0.05,0.09-0.05h0.05c0.06,0,0.1,0.04,0.1,0.1
	c0,0.29-0.01,0.56-0.02,0.82c-0.02,0.44-0.03,0.86,0,1.3h2.89c-0.04-0.4-0.02-0.93,0-1.53c0.01-0.4,0.02-0.81,0.02-1.25v-7.13
	c0-3.88-0.91-6.46-5.35-6.46c-2.14,0-3.5,0.69-4.41,1.16l0.18,2.89c0.7-0.6,2.15-1.47,3.82-1.47c1.76,0,2.76,1.17,2.76,3.21v0.6
	c0,0.06-0.04,0.1-0.1,0.1H53.55z M51.45,72.42c-1.37,0-2.29-1.05-2.29-2.61c0-2.23,1.43-3.17,4.78-3.17h0.31
	c0.06,0,0.1,0.04,0.1,0.1v0.92C54.35,70.91,53.42,72.42,51.45,72.42z M53.94,66.85c-3.21,0-4.58,0.89-4.58,2.97
	c0,1.46,0.82,2.4,2.09,2.4c1.84,0,2.7-1.45,2.7-4.56v-0.82H53.94z"/>
<path fill="#FFFFFF" d="M60.7,61.2c0-1.17-0.01-2.07-0.01-2.76l3.01,0.01c0.03,0.51,0.01,0.57,0.01,1.68h0.08
	c0.55-1.39,1.79-1.97,4-1.97c3.55,0,5.22,3.87,5.22,8.4c0,5.33-2.06,8.02-5.13,8.02c-2.05,0-3.19-0.31-3.69-1.58h-0.05v7.76H60.7
	V61.2z M66.79,71.69c1.91,0,2.98-1.71,2.98-4.98c0-3.77-0.93-5.67-2.93-5.67c-2.03,0-2.72,2.3-2.72,5.37
	C64.13,69.58,64.91,71.69,66.79,71.69z"/>
<path fill="#FFFFFF" d="M64.13,80.86H60.7c-0.06,0-0.1-0.05-0.1-0.1V61.2c0-0.66,0-1.24-0.01-1.74c0-0.39,0-0.72,0-1.02
	c0-0.03,0.01-0.05,0.03-0.07c0.02-0.02,0.04-0.03,0.07-0.03l0,0l3.01,0.01c0.05,0,0.1,0.04,0.1,0.1c0.02,0.34,0.02,0.48,0.01,0.86
	c0,0.14,0,0.31,0,0.53c0.61-1.24,1.82-1.78,3.98-1.78c3.23,0,5.32,3.34,5.32,8.5s-1.91,8.12-5.24,8.12c-1.83,0-3.04-0.23-3.64-1.33
	v7.42C64.24,80.81,64.19,80.86,64.13,80.86z M60.8,80.66h3.23V73c0-0.06,0.04-0.1,0.1-0.1h0.05c0.04,0,0.08,0.03,0.1,0.06
	c0.44,1.12,1.38,1.51,3.59,1.51c3.2,0,5.03-2.89,5.03-7.92c0-3.83-1.34-8.3-5.12-8.3c-2.2,0-3.37,0.57-3.9,1.91
	c-0.02,0.04-0.05,0.06-0.1,0.06h-0.08c-0.06,0-0.1-0.05-0.1-0.1c0-0.38,0-0.63,0-0.83c0-0.33,0-0.48-0.01-0.75l-2.81-0.01
	c0,0.28,0,0.58,0,0.92c0,0.5,0,1.08,0,1.74V80.66z M66.79,71.79c-1.81,0-2.76-1.86-2.76-5.38c0-3.63,0.95-5.47,2.82-5.47
	c2.04,0,3.03,1.89,3.03,5.78C69.88,69.99,68.79,71.79,66.79,71.79z M66.85,61.14c-1.73,0-2.62,1.77-2.62,5.27
	c0,2.36,0.44,5.18,2.56,5.18c1.86,0,2.88-1.73,2.88-4.88C69.68,62.96,68.75,61.14,66.85,61.14z"/>
<path fill="#FFFFFF" d="M89.74,70.35c0.58,0.25,2.05,1.25,3.72,1.25c1.3,0,2.31-0.34,2.31-1.57c0-0.62-0.29-1.2-1.59-2L92.1,66.7
	c-1.5-0.96-2.53-1.65-2.53-3.85c0-2.54,1.99-4.7,5.14-4.7c1.91,0,3.38,0.52,3.72,0.65l-0.2,2.95c-0.89-0.37-1.85-0.71-3.15-0.71
	c-1.44,0-2.05,0.59-2.05,1.54c0,0.86,0.44,1.2,1.47,1.9l2.47,1.18c1.95,1.14,2.47,2.72,2.47,4.15c0,2.93-2.11,4.88-5.34,4.88
	c-1.85,0-3.79-0.67-4.54-0.97L89.74,70.35z"/>
<path fill="#FFFFFF" d="M94.1,74.8c-2.08,0-4.18-0.82-4.58-0.98c-0.04-0.02-0.06-0.06-0.06-0.1l0.17-3.37
	c0-0.03,0.02-0.07,0.05-0.08c0.03-0.02,0.06-0.02,0.1-0.01c0.12,0.05,0.28,0.14,0.47,0.24c0.71,0.38,1.91,1.01,3.21,1.01
	c1.51,0,2.2-0.46,2.2-1.47c0-0.58-0.26-1.13-1.54-1.91l-2.09-1.33c-1.44-0.92-2.58-1.64-2.58-3.94c0-2.78,2.2-4.8,5.24-4.8
	c0.88,0,2.24,0.11,3.76,0.65c0.04,0.02,0.07,0.06,0.07,0.1l-0.2,2.96c0,0.03-0.02,0.06-0.05,0.08c-0.03,0.02-0.06,0.02-0.09,0.01
	c-0.86-0.35-1.8-0.7-3.11-0.7c-1.31,0-1.95,0.47-1.95,1.44c0,0.81,0.41,1.13,1.43,1.82l2.45,1.17c1.68,0.98,2.53,2.41,2.53,4.24
	C99.54,72.8,97.35,74.8,94.1,74.8z M89.67,73.66c0.52,0.21,2.49,0.94,4.43,0.94c3.18,0,5.23-1.88,5.23-4.78
	c0-1.75-0.81-3.12-2.42-4.06l-2.46-1.17c-1.07-0.73-1.53-1.08-1.53-2c0-0.75,0.37-1.64,2.15-1.64c1.28,0,2.21,0.32,3.05,0.66
	l0.19-2.74c-1.46-0.51-2.77-0.62-3.62-0.62c-2.92,0-5.04,1.93-5.04,4.6c0,2.19,1.04,2.85,2.49,3.76l2.08,1.33
	c1.16,0.71,1.63,1.32,1.63,2.09c0,1.12-0.79,1.67-2.41,1.67c-1.36,0-2.58-0.64-3.31-1.03c-0.12-0.06-0.22-0.12-0.32-0.17
	L89.67,73.66z"/>
<path fill="#FFFFFF" d="M75.46,61.2c0-1.17-0.01-2.07-0.01-2.76l3.01,0.01c0.03,0.51,0.01,0.57,0.01,1.68h0.08
	c0.55-1.39,1.78-1.97,4-1.97c3.55,0,5.22,3.87,5.22,8.4c0,5.33-2.06,8.02-5.13,8.02c-2.05,0-3.19-0.31-3.69-1.58H78.9v7.76h-3.44
	V61.2z M81.56,71.69c1.91,0,2.99-1.71,2.99-4.98c0-3.77-0.94-5.67-2.93-5.67c-2.02,0-2.72,2.3-2.72,5.37
	C78.9,69.58,79.67,71.69,81.56,71.69z"/>
<path fill="#FFFFFF" d="M78.9,80.86h-3.44c-0.06,0-0.1-0.05-0.1-0.1V61.2c0-0.66,0-1.24-0.01-1.74c0-0.39,0-0.72,0-1.02
	c0-0.03,0.01-0.05,0.03-0.07c0.02-0.02,0.05-0.03,0.07-0.03l0,0l3.01,0.01c0.05,0,0.1,0.04,0.1,0.1c0.02,0.34,0.02,0.48,0.02,0.86
	c0,0.14,0,0.31,0,0.53c0.61-1.24,1.82-1.78,3.98-1.78c3.23,0,5.32,3.34,5.32,8.5s-1.91,8.12-5.24,8.12c-1.83,0-3.04-0.23-3.64-1.33
	v7.42C79,80.81,78.96,80.86,78.9,80.86z M75.56,80.66h3.23V73c0-0.06,0.05-0.1,0.1-0.1h0.06c0.04,0,0.08,0.03,0.1,0.06
	c0.44,1.12,1.38,1.51,3.59,1.51c3.2,0,5.04-2.89,5.04-7.92c0-3.83-1.34-8.3-5.12-8.3c-2.21,0-3.38,0.57-3.91,1.91
	c-0.02,0.04-0.05,0.06-0.09,0.06h-0.08c-0.06,0-0.1-0.05-0.1-0.1c0-0.38,0-0.63,0-0.83c0-0.33,0-0.48-0.01-0.75l-2.81-0.01
	c0,0.28,0,0.58,0,0.92c0,0.5,0.01,1.08,0.01,1.74V80.66z M81.56,71.79c-1.8,0-2.76-1.86-2.76-5.38c0-3.63,0.95-5.47,2.82-5.47
	c2.04,0,3.03,1.89,3.03,5.78C84.64,69.99,83.55,71.79,81.56,71.79z M81.61,61.14c-1.73,0-2.61,1.77-2.61,5.27
	c0,2.36,0.44,5.18,2.55,5.18c1.86,0,2.88-1.73,2.88-4.88C84.44,62.96,83.52,61.14,81.61,61.14z"/>
</svg>
