<?xml version="1.0" encoding="utf-8"?>
<!-- Generator: Adobe Illustrator 16.0.0, SVG Export Plug-In . SVG Version: 6.00 Build 0)  -->
<!DOCTYPE svg PUBLIC "-//W3C//DTD SVG 1.0//EN" "http://www.w3.org/TR/2001/REC-SVG-20010904/DTD/svg10.dtd">
<svg version="1.0" id="Layer_1" xmlns="http://www.w3.org/2000/svg" xmlns:xlink="http://www.w3.org/1999/xlink" x="0px" y="0px"
	 width="32px" height="32px" viewBox="0 0 32 32" enable-background="new 0 0 32 32" xml:space="preserve">
<path fill="#333333" d="M14.59,0h2.939C25.061,0.67,31.42,7.05,32,14.6v2.929C31.33,25.05,24.95,31.41,17.41,32h-2.94
	C6.94,31.32,0.58,24.939,0,17.4v-2.93C0.68,6.94,7.05,0.59,14.59,0z"/>
<path fill="#FFFFFF" d="M2.61,17.02C1.77,9.48,8.48,2.3,16.05,2.55C23.561,2.36,30.2,9.48,29.4,16.98
	c-0.26,5.47-4.26,9.959-9.17,11.99c-0.121-1.99-0.32-3.99-0.92-5.892c2.5-0.642,5.41-1.608,6.229-4.37
	c1.66-4.15-1.41-8.11-1.182-12.3c-1.51,0.61-3.028,1.21-4.549,1.78c-2.531-0.28-5.09-0.27-7.621,0c-1.53-0.58-3.05-1.18-4.57-1.78
	c0.3,4.2-2.85,8.14-1.15,12.29c0.85,2.949,4.06,3.72,6.57,4.63c-2.83,3.18-5.45-0.96-8.13-2c1.62,2.642,3.48,5.948,7.11,5.42
	c-0.02,0.562-0.07,1.67-0.1,2.222C6.93,27.05,2.89,22.52,2.61,17.02z"/>
</svg>
