<?xml version="1.0" encoding="utf-8"?>
<!-- Generator: Adobe Illustrator 16.0.0, SVG Export Plug-In . SVG Version: 6.00 Build 0)  -->
<!DOCTYPE svg PUBLIC "-//W3C//DTD SVG 1.0//EN" "http://www.w3.org/TR/2001/REC-SVG-20010904/DTD/svg10.dtd">
<svg version="1.0" id="Layer_1" xmlns="http://www.w3.org/2000/svg" xmlns:xlink="http://www.w3.org/1999/xlink" x="0px" y="0px"
	 width="362.167px" height="278.891px" viewBox="0 0 362.167 278.891" enable-background="new 0 0 362.167 278.891"
	 xml:space="preserve">
<path fill="#1F1F1F" d="M8.272,0.833c3.98-1.11,8.13-0.73,12.21-0.77c73.06,0.01,146.109-0.01,219.17,0.01
	c2.061-0.45,3.27,1.26,4.07,2.86c1.72,2.82,3.859,5.36,6.08,7.8c32.979,38.38,65.83,76.87,98.879,115.19
	c3.41,4.35,7.641,8.11,10.381,12.97c0.31,2.19-1.461,3.82-2.62,5.449c-38.44,44.631-76.78,89.351-114.97,134.191
	c-1.641,0.189-3.301,0.329-4.951,0.35c-72.68,0-145.359-0.021-218.039,0c-2.77-0.07-5.62,0.229-8.34-0.45
	c-5.08-2.53-10.25-7.05-10.07-13.24c-0.06-83.37,0-166.74-0.03-250.11c-0.48-5.27,3.27-9.38,6.44-13.08
	C6.932,1.713,7.822,1.124,8.272,0.833z"/>
<path d="M365.482,0.403c0-0.04,0.01-0.11,0.01-0.15v0.23L365.482,0.403z"/>
<path fill="#FFFFFF" d="M120.792,58.374c5.96-6.65,14.64-10.82,23.59-10.93c10.39-0.47,20.86,4.24,27.379,12.36
	c7.371,7.56,9.811,18.3,11.41,28.38c0.58,4.05,3.19,7.65,2.881,11.85c-0.351,6.93-5.351,12.27-7.84,18.47
	c-2.611,6.62-6.221,12.91-11.15,18.09c-4.2,3.609-2.07,9.96-0.83,14.54c1.81,0.859,3.6,1.779,5.539,2.31
	c10.391,2.761,21.041,5.38,30.361,10.92c5.27,4.28,9.31,10.07,11.59,16.479c4.02,10.341,6.64,21.371,7.279,32.451
	c-0.41,0.5-1.22,1.5-1.619,2c-4.74,1.979-9.92,1.24-14.9,1.379c-14.12,2.021-28.461,0.4-42.67,1.19
	c-11.39,0.9-22.95,1.56-34.28-0.149c-11.55-0.25-23.11,0.279-34.64-0.26c-7.03-1.681-14.44,0.35-21.31-2.23
	c-0.4-0.49-1.21-1.49-1.61-1.98c0.57-7.939,1.97-15.82,4.33-23.43c2.78-10.29,7.53-20.88,16.74-26.93
	c9.18-4.28,19.03-6.791,28.73-9.59c2.83-0.891,6.18-2.221,6.92-5.451c0.28-3.26,0.73-6.979-1.28-9.8
	c-3.84-4.539-7.95-9.029-10.38-14.54c-1.92-4.09-3-8.62-5.73-12.29c-3.26-4.53-5.42-10.55-3.25-16c2.38-6.71,2.53-13.94,4.8-20.66
	C113.222,68.664,115.882,62.604,120.792,58.374z"/>
<path d="M365.482,280.284c0-0.041,0.01-0.111,0.01-0.15v0.229L365.482,280.284z"/>
</svg>
