<?xml version="1.0" encoding="utf-8"?>
<!-- Generator: Adobe Illustrator 15.1.0, SVG Export Plug-In . SVG Version: 6.00 Build 0)  -->
<!DOCTYPE svg PUBLIC "-//W3C//DTD SVG 1.1//EN" "http://www.w3.org/Graphics/SVG/1.1/DTD/svg11.dtd">
<svg version="1.1" id="Ebene_1" xmlns="http://www.w3.org/2000/svg" xmlns:xlink="http://www.w3.org/1999/xlink" x="0px" y="0px"
	 width="65.197px" height="65.195px" viewBox="-311.099 82.902 65.197 65.195"
	 enable-background="new -311.099 82.902 65.197 65.195" xml:space="preserve">
<path fill="#FFE300" d="M-278.509,90.5c-13.802,0-24.991,11.189-24.991,24.992c0,13.802,11.189,24.992,24.991,24.992
	c13.803,0,24.991-11.189,24.991-24.992S-264.706,90.5-278.509,90.5z M-266.241,104.216c1.134,0,2.052,0.918,2.052,2.052
	c0,1.133-0.918,2.051-2.052,2.051s-2.052-0.918-2.052-2.051C-268.293,105.134-267.375,104.216-266.241,104.216z M-291.241,104.216
	c1.133,0,2.051,0.918,2.051,2.052c0,1.133-0.918,2.051-2.051,2.051c-1.133,0-2.052-0.918-2.052-2.051
	C-293.293,105.134-292.375,104.216-291.241,104.216z M-261.217,125.661h-34.374c-0.739,0-1.339-0.71-1.339-1.587
	s0.6-1.588,1.339-1.588h34.374c0.74,0,1.341,0.711,1.341,1.588S-260.477,125.661-261.217,125.661z"/>
</svg>
