<?xml version="1.0" encoding="utf-8"?>
<!-- Generator: Adobe Illustrator 16.0.0, SVG Export Plug-In . SVG Version: 6.00 Build 0)  -->
<!DOCTYPE svg PUBLIC "-//W3C//DTD SVG 1.0//EN" "http://www.w3.org/TR/2001/REC-SVG-20010904/DTD/svg10.dtd">
<svg version="1.0" id="Layer_1" xmlns="http://www.w3.org/2000/svg" xmlns:xlink="http://www.w3.org/1999/xlink" x="0px" y="0px"
	 width="235.316px" height="194.125px" viewBox="-12.5 175.106 235.316 194.125"
	 enable-background="new -12.5 175.106 235.316 194.125" xml:space="preserve">
<g image-rendering="optimizeQuality" text-rendering="geometricPrecision" shape-rendering="geometricPrecision">
	<g image-rendering="optimizeQuality" text-rendering="geometricPrecision" shape-rendering="geometricPrecision">
		<g id="Background">
		</g>
		<g id="Guides">
		</g>
		<g id="Foreground">
			<rect x="-12.5" y="148.802" fill="#FFFFFF" width="242.029" height="161.353"/>
			<g>
				<path fill="#005A9C" d="M48.4,175.714l19.359,65.819l19.359-65.819h14.017h38.469v6.542l-19.762,34.045
					c6.941,2.229,12.191,6.28,15.751,12.152c3.56,5.876,5.342,12.771,5.342,20.689c0,9.796-2.605,18.028-7.812,24.701
					c-5.207,6.672-11.95,10.01-20.226,10.01c-6.232,0-11.661-1.979-16.287-5.939c-4.628-3.959-8.054-9.32-10.279-16.088
					l10.945-4.538c1.604,4.095,3.718,7.321,6.344,9.678c2.625,2.359,5.717,3.536,9.277,3.536c3.738,0,6.898-2.09,9.479-6.272
					c2.582-4.185,3.873-9.21,3.873-15.089c0-6.499-1.381-11.527-4.138-15.087c-3.207-4.182-8.235-6.276-15.089-6.276h-5.338v-6.407
					l18.69-32.311H97.812l-1.284,2.186l-27.44,92.603h-1.334l-20.028-67.019l-20.024,67.019h-1.335L-5.669,175.714H8.349
					l19.358,65.819l13.083-44.322l-6.407-21.498H48.4L48.4,175.714z"/>
			</g>
			<path d="M212.453,175.714c-2.754,0-5.224,0.992-7.096,2.895c-1.987,2.017-3.094,4.625-3.094,7.321s1.052,5.194,2.982,7.153
				c1.959,1.986,4.484,3.066,7.21,3.066c2.666,0,5.25-1.08,7.265-3.036c1.93-1.873,2.981-4.37,2.981-7.18
				c0-2.726-1.079-5.278-2.951-7.18C217.788,176.763,215.233,175.714,212.453,175.714z M221.337,186.018
				c0,2.356-0.91,4.541-2.581,6.158c-1.762,1.704-3.946,2.611-6.36,2.611c-2.269,0-4.512-0.934-6.186-2.639
				c-1.674-1.704-2.611-3.889-2.611-6.215s0.965-4.599,2.695-6.357c1.617-1.647,3.803-2.524,6.186-2.524
				c2.44,0,4.626,0.911,6.33,2.639C220.456,181.334,221.337,183.547,221.337,186.018z M212.735,179.943h-4.37v11.581h2.185v-4.938
				h2.159l2.355,4.938h2.441l-2.586-5.277c1.674-0.343,2.639-1.476,2.639-3.123C217.559,181.022,215.973,179.943,212.735,179.943z
				 M212.339,181.362c2.044,0,2.979,0.568,2.979,1.986c0,1.361-0.935,1.846-2.926,1.846h-1.845v-3.832H212.339z"/>
		</g>
		<g id="Calque_1">
			<g>
				<path d="M195.266,175.106l2.272,13.805l-8.037,15.379c0,0-3.086-6.525-8.212-10.135c-4.32-3.042-7.133-3.705-11.534-2.797
					c-5.651,1.167-12.058,7.923-14.854,16.253c-3.345,9.967-3.379,14.791-3.496,19.222c-0.188,7.103,0.931,11.301,0.931,11.301
					s-4.881-9.029-4.833-22.253c0.03-9.439,1.516-17.998,5.883-26.445c3.842-7.425,9.553-11.883,14.623-12.408
					c5.24-0.541,9.382,1.983,12.582,4.716c3.361,2.871,6.757,9.147,6.757,9.147L195.266,175.106z"/>
				<path d="M196.257,253.221c0,0-3.553,6.35-5.766,8.797c-2.215,2.447-6.175,6.757-11.066,8.912
					c-4.891,2.154-7.456,2.562-12.29,2.097c-4.831-0.464-9.318-3.261-10.892-4.427c-1.573-1.166-5.593-4.602-7.866-7.806
					c-2.272-3.203-5.826-9.61-5.826-9.61s1.98,6.42,3.22,9.146c0.713,1.57,2.904,6.367,6.014,10.542
					c2.901,3.896,8.535,10.603,17.097,12.114c8.562,1.517,14.444-2.329,15.9-3.26c1.456-0.932,4.524-3.503,6.468-5.58
					c2.027-2.168,3.946-4.936,5.008-6.596c0.777-1.211,2.042-3.671,2.042-3.671L196.257,253.221z"/>
			</g>
		</g>
	</g>
</g>
<g>
	<path fill="#888888" d="M42.757,342.842l-10.305-36.905l-10.305,36.905h-4.122L5.723,299.883h4.122l10.37,37.807l10.563-37.807
		h3.349l10.499,37.807l10.37-37.807h4.122l-12.238,42.959H42.757z"/>
	<path fill="#888888" d="M64.661,304.262c0-1.417,1.224-2.512,2.576-2.512c1.417,0,2.576,1.095,2.576,2.512
		s-1.159,2.576-2.576,2.576C65.885,306.838,64.661,305.679,64.661,304.262z M65.562,342.842v-31.109h3.35v31.109H65.562z"/>
	<path fill="#888888" d="M102.276,342.842v-4.959c-2.19,3.221-6.183,5.732-10.82,5.732c-8.244,0-13.848-6.312-13.848-16.295
		c0-9.854,5.604-16.36,13.848-16.36c4.444,0,8.373,2.254,10.82,5.797v-16.875h3.414v42.959H102.276z M102.276,335.049v-15.393
		c-1.803-3.027-5.861-5.668-10.241-5.668c-6.892,0-10.885,5.797-10.885,13.333s3.993,13.268,10.885,13.268
		C96.415,340.588,100.473,338.012,102.276,335.049z"/>
	<path fill="#888888" d="M116.191,350.764l1.933-2.705c2.705,3.221,5.667,4.38,10.369,4.38c5.604,0,10.563-2.834,10.563-9.854
		v-4.959c-2.19,3.22-6.183,5.861-10.82,5.861c-8.244,0-13.848-6.248-13.848-16.23c0-9.854,5.604-16.295,13.848-16.295
		c4.444,0,8.309,2.254,10.82,5.797v-5.024h3.414v30.851c0,9.468-6.441,12.882-13.977,12.882
		C123.212,355.466,119.863,354.5,116.191,350.764z M139.056,334.792v-15.136c-1.803-3.027-5.925-5.668-10.241-5.668
		c-6.892,0-10.885,5.732-10.885,13.268s3.993,13.203,10.885,13.203C133.131,340.459,137.253,337.818,139.056,334.792z"/>
	<path fill="#888888" d="M151.104,327.256c0-9.017,6.312-16.295,14.942-16.295c9.468,0,14.685,7.472,14.685,16.488v0.902h-26.021
		c0.322,6.763,4.831,12.366,12.173,12.366c3.929,0,7.536-1.481,10.176-4.315l1.739,2.19c-3.092,3.22-7.021,5.024-12.173,5.024
		C157.545,343.615,151.104,336.853,151.104,327.256z M165.982,313.859c-7.342,0-11.014,6.441-11.271,11.851h22.607
		C177.253,320.429,173.775,313.859,165.982,313.859z"/>
	<path fill="#888888" d="M190.009,336.853v-22.156h-5.152v-2.963h5.152v-8.501h3.414v8.501h6.312v2.963h-6.312v21.641
		c0,2.512,1.03,4.251,3.22,4.251c1.481,0,2.77-0.708,3.478-1.481l1.288,2.577c-1.224,1.159-2.705,1.932-5.281,1.932
		C192.006,343.615,190.009,341.104,190.009,336.853z"/>
</g>
</svg>
