<?xml version="1.0" encoding="UTF-8" standalone="no"?>
<!-- Generator: Adobe Illustrator 16.0.0, SVG Export Plug-In . SVG Version: 6.00 Build 0)  -->
<!DOCTYPE svg  PUBLIC '-//W3C//DTD SVG 1.0//EN'  'http://www.w3.org/TR/2001/REC-SVG-20010904/DTD/svg10.dtd'>
<svg id="Layer_1" xmlns="http://www.w3.org/2000/svg" xml:space="preserve" height="59px" viewBox="302.458 113.678 76.149 59" width="76.149px" version="1.0" y="0px" x="0px" xmlns:xlink="http://www.w3.org/1999/xlink" enable-background="new 302.458 113.678 76.149 59">
<path d="m302.46 136.66c0 1.668 1.353 3.021 3.021 3.021h10.636c1.668 0 3.021-1.353 3.021-3.021v-11.959c0-1.669-1.354-3.021-3.021-3.021h-10.636c-1.668 0-3.021 1.352-3.021 3.021v11.96z" fill="#EB5831"/>
	<path d="m315.29 127.31l-6.743-0.007v2.255h5.244c0.999 0 1.499 0.497 1.499 1.49v3.747c0 0.998-0.499 1.499-1.499 1.499h-7.492l0.75-2.241 5.994-0.008v-2.247h-5.246c-0.998 0-1.498-0.497-1.498-1.491v-5.253h8.991v2.25h0.01z" fill="#fff"/>
<g fill="#fff">
	<path d="m330.92 136.26l-0.706-1.896h-4.799l-0.705 1.896h-2.703l4.313-11.195h2.988l4.313 11.195h-2.69zm-3.1-8.81l-1.745 4.817h3.491l-1.75-4.82z"/>
	<path d="m334.67 136.26v-11.19h5.237c2.435 0 3.76 1.646 3.76 3.608 0 1.947-1.343 3.593-3.76 3.593h-2.854v3.994h-2.39zm6.56-7.58c0-0.939-0.723-1.511-1.662-1.511h-2.519v3.005h2.519c0.94-0.01 1.66-0.58 1.66-1.5z"/>
	<path d="m345.16 136.26v-11.19h5.236c2.434 0 3.76 1.646 3.76 3.608 0 1.947-1.343 3.593-3.76 3.593h-2.854v3.994h-2.39zm6.56-7.58c0-0.939-0.722-1.511-1.662-1.511h-2.518v3.005h2.518c0.94-0.01 1.66-0.58 1.66-1.5z"/>
	<path d="m354.88 134.69l1.31-1.862c0.788 0.822 2.015 1.527 3.558 1.527 1.326 0 1.948-0.587 1.948-1.243 0-1.946-6.446-0.587-6.446-4.8 0-1.863 1.612-3.407 4.247-3.407 1.778 0 3.256 0.537 4.363 1.562l-1.326 1.778c-0.906-0.838-2.114-1.225-3.255-1.225-1.008 0-1.579 0.437-1.579 1.108 0 1.762 6.429 0.57 6.429 4.749 0 2.048-1.477 3.592-4.481 3.592-2.17 0-3.71-0.73-4.77-1.78z"/>
</g>
<polygon points="375.25 133.75 371.9 127.94 378.61 127.94" fill="#A0A0A0"/>
<path d="m302.46 162.66c0 1.668 1.352 3.021 3.02 3.021h10.636c1.668 0 3.021-1.353 3.021-3.021v-11.959c0-1.669-1.354-3.021-3.021-3.021h-10.636c-1.668 0-3.02 1.352-3.02 3.021v11.96z" fill="#EB5831"/>
	<path d="m315.29 153.31l-6.743-0.007v2.255h5.244c0.999 0 1.499 0.497 1.499 1.49v3.747c0 0.998-0.499 1.499-1.499 1.499h-7.49l0.75-2.241 5.994-0.008v-2.247h-5.246c-0.998 0-1.498-0.497-1.498-1.491v-5.253h8.991v2.25h0.01z" fill="#fff"/>
<g fill="#222">
	<path d="m330.92 162.26l-0.706-1.896h-4.799l-0.705 1.896h-2.703l4.313-11.195h2.988l4.313 11.195h-2.69zm-3.1-8.81l-1.745 4.817h3.491l-1.75-4.82z"/>
	<path d="m334.67 162.26v-11.19h5.237c2.435 0 3.761 1.646 3.761 3.608 0 1.947-1.344 3.593-3.761 3.593h-2.854v3.994h-2.39zm6.56-7.58c0-0.939-0.723-1.511-1.662-1.511h-2.519v3.005h2.519c0.94-0.01 1.66-0.58 1.66-1.5z"/>
	<path d="m345.16 162.26v-11.19h5.236c2.434 0 3.76 1.646 3.76 3.608 0 1.947-1.343 3.593-3.76 3.593h-2.854v3.994h-2.39zm6.56-7.58c0-0.939-0.722-1.511-1.662-1.511h-2.518v3.005h2.518c0.94-0.01 1.66-0.58 1.66-1.5z"/>
	<path d="m354.88 160.69l1.31-1.862c0.789 0.822 2.015 1.527 3.558 1.527 1.326 0 1.948-0.587 1.948-1.243 0-1.946-6.446-0.587-6.446-4.8 0-1.862 1.612-3.407 4.247-3.407 1.778 0 3.256 0.537 4.363 1.562l-1.325 1.778c-0.907-0.838-2.115-1.225-3.256-1.225-1.008 0-1.578 0.437-1.578 1.108 0 1.762 6.428 0.57 6.428 4.749 0 2.048-1.477 3.592-4.48 3.592-2.17 0-3.72-0.73-4.77-1.78z"/>
</g>
<polygon points="375.25 153.94 378.61 159.75 371.89 159.75" fill="#A0A0A0"/>
<rect y="113.68" x="306.7" height="8" width="8.196" fill="none"/>
<rect y="139.68" x="307.62" height="8" width="8.197" fill="none"/>
<rect y="165.68" x="307.21" height="7" width="7.172" fill="none"/>
</svg>
