<?xml version="1.0" encoding="UTF-8"?>
<!DOCTYPE svg PUBLIC "-//W3C//DTD SVG 1.1//EN" "http://www.w3.org/Graphics/SVG/1.1/DTD/svg11.dtd">
<!-- Creator: CorelDRAW X8 -->
<svg xmlns="http://www.w3.org/2000/svg" xml:space="preserve" width="85.6358mm" height="84.0005mm" version="1.1" style="shape-rendering:geometricPrecision; text-rendering:geometricPrecision; image-rendering:optimizeQuality; fill-rule:evenodd; clip-rule:evenodd" viewBox="0 0 450 441" xmlns:xlink="http://www.w3.org/1999/xlink">
 <defs>
  <style type="text/css">
   <![CDATA[
    .fil5 {fill:none}
    .fil4 {fill:url(#id0)}
    .fil2 {fill:url(#id1)}
    .fil3 {fill:url(#id2)}
    .fil0 {fill:url(#id3)}
    .fil1 {fill:url(#id4)}
   ]]>
  </style>
  <linearGradient id="id0" gradientUnits="userSpaceOnUse" x1="366.764" y1="378.041" x2="327.849" y2="169.569">
   <stop offset="0" style="stop-opacity:1; stop-color:#FFAE19"/>
   <stop offset="1" style="stop-opacity:1; stop-color:#FDDA4B"/>
  </linearGradient>
  <linearGradient id="id1" gradientUnits="userSpaceOnUse" x1="19.31" y1="182.077" x2="172.19" y2="334.956">
   <stop offset="0" style="stop-opacity:1; stop-color:#FFAE19"/>
   <stop offset="0.678431" style="stop-opacity:1; stop-color:#FEC432"/>
   <stop offset="1" style="stop-opacity:1; stop-color:#FDDA4B"/>
  </linearGradient>
  <linearGradient id="id2" gradientUnits="userSpaceOnUse" xlink:href="#id0" x1="127.716" y1="414.176" x2="309.781" y2="306.466">
  </linearGradient>
  <linearGradient id="id3" gradientUnits="userSpaceOnUse" xlink:href="#id0" x1="420.34" y1="149.201" x2="210.759" y2="115.588">
  </linearGradient>
  <linearGradient id="id4" gradientUnits="userSpaceOnUse" xlink:href="#id0" x1="211.799" y1="19.4686" x2="110.343" y2="207.789">
  </linearGradient>
 </defs>
 <g id="Capa_x0020_1">
  <metadata id="CorelCorpID_0Corel-Layer"/>
  <path class="fil0" d="M430 265l0 0c0,0 49,-67 -7,-150 -40,-59 -130,-67 -178,-67 -20,0 -34,1 -34,1l0 0c0,0 -54,33 -50,79 -2,-1 -3,0 -3,0l-4 11c-1,0 10,-1 15,-1 0,0 0,0 1,0 2,0 5,-1 9,-1 64,-3 293,-9 247,102 0,0 4,17 4,26z"/>
  <path class="fil1" d="M184 5c-98,24 -135,176 -135,176 0,0 11,58 51,73 4,6 14,15 14,11 0,-2 1,-6 2,-10 8,-27 88,-299 185,-210 0,0 17,2 26,5 0,0 -33,-50 -103,-50 -13,0 -26,2 -40,5l0 0z"/>
  <path class="fil2" d="M0 206c-3,100 133,178 133,178 0,0 63,5 86,-34 7,-2 18,-6 15,-6 -2,0 -10,-5 -16,-8 -38,-24 -256,-165 -147,-232 0,0 6,-16 11,-23 0,0 -79,25 -82,125z"/>
  <path class="fil3" d="M67 342c0,0 -14,-11 -20,-18 0,0 4,83 100,112 96,30 206,-81 206,-81 0,0 25,-70 -19,-100 0,0 -228,220 -267,87l0 0z"/>
  <path class="fil4" d="M280 419c0,0 -15,9 -23,12 0,0 79,25 140,-55 53,-69 9,-186 -3,-214 -26,-14 -65,-21 -102,-24 0,0 0,0 0,0 1,2 126,290 -12,281l0 0z"/>
  <polygon class="fil5" points="211,49 211,49 "/>
  <polygon class="fil5" points="280,419 280,419 "/>
  <path class="fil5" d="M292 138c0,0 0,0 0,0 0,0 0,0 0,0l0 0z"/>
  <polygon class="fil5" points="67,342 67,342 "/>
  <polygon class="fil5" points="184,5 184,5 "/>
 </g>
</svg>