<?xml version="1.0" encoding="UTF-8"?>
<!DOCTYPE svg PUBLIC "-//W3C//DTD SVG 1.1//EN" "http://www.w3.org/Graphics/SVG/1.1/DTD/svg11.dtd">
<!-- Creator: CorelDRAW X8 -->
<svg xmlns="http://www.w3.org/2000/svg" xml:space="preserve" width="85.6358mm" height="84.0005mm" version="1.1" style="shape-rendering:geometricPrecision; text-rendering:geometricPrecision; image-rendering:optimizeQuality; fill-rule:evenodd; clip-rule:evenodd" viewBox="0 0 544 534" xmlns:xlink="http://www.w3.org/1999/xlink">
 <defs>
  <style type="text/css">
   <![CDATA[
    .fil5 {fill:none}
    .fil4 {fill:url(#id0)}
    .fil2 {fill:url(#id1)}
    .fil0 {fill:url(#id2)}
    .fil1 {fill:url(#id3)}
    .fil3 {fill:url(#id4)}
   ]]>
  </style>
  <linearGradient id="id0" gradientUnits="userSpaceOnUse" x1="443.455" y1="457.09" x2="396.403" y2="205.026">
   <stop offset="0" style="stop-opacity:1; stop-color:#4EA40A"/>
   <stop offset="1" style="stop-opacity:1; stop-color:#C6F101"/>
  </linearGradient>
  <linearGradient id="id1" gradientUnits="userSpaceOnUse" x1="23.3477" y1="220.15" x2="208.195" y2="404.997">
   <stop offset="0" style="stop-opacity:1; stop-color:#4EA40A"/>
   <stop offset="0.678431" style="stop-opacity:1; stop-color:#8ACA06"/>
   <stop offset="1" style="stop-opacity:1; stop-color:#C6F101"/>
  </linearGradient>
  <linearGradient id="id2" gradientUnits="userSpaceOnUse" xlink:href="#id0" x1="508.235" y1="180.399" x2="254.83" y2="139.758">
  </linearGradient>
  <linearGradient id="id3" gradientUnits="userSpaceOnUse" xlink:href="#id0" x1="256.087" y1="23.5395" x2="133.416" y2="251.238">
  </linearGradient>
  <linearGradient id="id4" gradientUnits="userSpaceOnUse" xlink:href="#id0" x1="154.421" y1="500.781" x2="374.557" y2="370.548">
  </linearGradient>
 </defs>
 <g id="Capa_x0020_1">
  <metadata id="CorelCorpID_0Corel-Layer"/>
  <path class="fil0" d="M520 320l0 0c0,0 59,-81 -9,-181 -48,-71 -156,-81 -215,-81 -24,0 -40,1 -40,1l0 0c0,0 -67,40 -61,95 -2,0 -4,0 -4,0l-5 14c-1,1 13,-1 18,-1 1,0 1,0 1,0 3,-1 7,-1 12,-1 77,-5 353,-11 298,123 0,0 5,21 5,31z"/>
  <path class="fil1" d="M222 6c-118,29 -163,212 -163,212 0,0 13,71 62,89 4,7 17,19 17,14 0,-3 1,-8 2,-13 9,-32 106,-362 224,-253 0,0 21,2 31,6 0,0 -40,-61 -125,-61 -14,0 -31,2 -48,6l0 0z"/>
  <path class="fil2" d="M0 249c-4,122 160,215 160,215 0,0 76,6 105,-41 8,-2 21,-7 18,-7 -3,-1 -12,-6 -19,-10 -46,-28 -310,-200 -179,-280 0,0 8,-20 15,-29 0,0 -96,31 -100,152z"/>
  <path class="fil3" d="M81 413c0,0 -17,-13 -24,-21 0,0 4,100 121,136 116,35 249,-99 249,-99 0,0 30,-84 -23,-121 0,0 -276,267 -323,105l0 0z"/>
  <path class="fil4" d="M339 506c0,0 -18,12 -28,15 0,0 95,31 169,-66 64,-84 11,-225 -3,-260 -33,-16 -79,-24 -124,-28 0,0 0,0 0,0 1,3 153,350 -14,339l0 0z"/>
  <polygon class="fil5" points="256,59 256,59 "/>
  <polygon class="fil5" points="339,506 339,506 "/>
  <path class="fil5" d="M353 167c0,0 0,0 0,0 0,0 0,0 0,0l0 0z"/>
  <polygon class="fil5" points="81,413 81,413 "/>
  <polygon class="fil5" points="222,6 222,6 "/>
 </g>
</svg>