<?xml version="1.0" encoding="UTF-8" standalone="no"?>
<!-- Created with Inkscape (http://www.inkscape.org/) -->

<svg
   xmlns:dc="http://purl.org/dc/elements/1.1/"
   xmlns:cc="http://creativecommons.org/ns#"
   xmlns:rdf="http://www.w3.org/1999/02/22-rdf-syntax-ns#"
   xmlns:svg="http://www.w3.org/2000/svg"
   xmlns="http://www.w3.org/2000/svg"
   xmlns:sodipodi="http://sodipodi.sourceforge.net/DTD/sodipodi-0.dtd"
   xmlns:inkscape="http://www.inkscape.org/namespaces/inkscape"
   id="svg4222"
   version="1.1"
   inkscape:version="0.91 r13725"
   xml:space="preserve"
   width="303.43488"
   height="297.64072"
   viewBox="0 0 303.43488 297.64072"
   sodipodi:docname="orange.svg"><metadata
     id="metadata4228"><rdf:RDF><cc:Work
         rdf:about=""><dc:format>image/svg+xml</dc:format><dc:type
           rdf:resource="http://purl.org/dc/dcmitype/StillImage" /><dc:title></dc:title></cc:Work></rdf:RDF></metadata><defs
     id="defs4226"><clipPath
       clipPathUnits="userSpaceOnUse"
       id="clipPath4236"><path
         d="M 0,600 800,600 800,0 0,0 0,600 Z"
         id="path4238"
         inkscape:connector-curvature="0" /></clipPath><clipPath
       clipPathUnits="userSpaceOnUse"
       id="clipPath4288"><path
         d="M 0,600 800,600 800,0 0,0 0,600 Z"
         id="path4290"
         inkscape:connector-curvature="0" /></clipPath></defs><sodipodi:namedview
     pagecolor="#ffffff"
     bordercolor="#666666"
     borderopacity="1"
     objecttolerance="10"
     gridtolerance="10"
     guidetolerance="10"
     inkscape:pageopacity="0"
     inkscape:pageshadow="2"
     inkscape:window-width="1920"
     inkscape:window-height="1016"
     id="namedview4224"
     showgrid="false"
     fit-margin-top="0"
     fit-margin-left="0"
     fit-margin-right="0"
     fit-margin-bottom="0"
     inkscape:zoom="1.076"
     inkscape:cx="469.92074"
     inkscape:cy="169.25089"
     inkscape:window-x="0"
     inkscape:window-y="27"
     inkscape:window-maximized="1"
     inkscape:current-layer="g4234" /><g
     id="g4230"
     inkscape:groupmode="layer"
     inkscape:label="Untitled-1"
     transform="matrix(1.25,0,0,-1.25,-30.079264,503.38983)"><g
       id="g4232"><g
         id="g4234"
         clip-path="url(#clipPath4236)"><g
           id="g4260"
           transform="translate(239.8486,308.0776)"
           style="fill:#e34c26;fill-opacity:1"><path
             d="m 0,0 c -14.367,8.752 -43.776,12.36 -55.555,13.493 12.171,-30.02 56.483,-149.2 -9.111,-144.827 0,0 -7.926,-5.082 -12.463,-6.636 0,0 42.717,-13.696 75.455,29.483 C 23.468,-75.329 8.367,-22.669 0,0"
             style="fill:#e34c26;fill-opacity:1;fill-rule:nonzero;stroke:none"
             id="path4262"
             inkscape:connector-curvature="0" /></g><g
           id="g4264"
           transform="translate(252.228,340.6582)"
           style="fill:#e34c26;fill-opacity:1"><path
             d="m 0,0 c -23.655,34.851 -79.452,37.033 -103.138,36.276 -6.575,-6.796 -20.705,-23.229 -31.356,-48.397 0.929,0.06 1.952,0.122 3.08,0.185 34.424,1.939 157.692,4.853 132.904,-55.054 0,0 2.275,-9.137 2.298,-13.933 0,0 26.646,36.09 -3.788,80.923"
             style="fill:#e34c26;fill-opacity:1;fill-rule:nonzero;stroke:none"
             id="path4266"
             inkscape:connector-curvature="0" /></g><g
           id="g4268"
           transform="translate(197.6338,258.7803)"
           style="fill:#e34c26;fill-opacity:1"><path
             d="m 0,0 c -26.111,-23.601 -119.274,-102.237 -137.568,-40.383 0,0 -7.516,5.671 -10.548,9.388 0,0 1.97,-44.817 53.823,-60.547 38.251,-11.607 80.517,17.87 100.064,34.138 C 8.952,-36.077 3.034,-10.89 0,0"
             style="fill:#e34c26;fill-opacity:1;fill-rule:nonzero;stroke:none"
             id="path4270"
             inkscape:connector-curvature="0" /></g><g
           id="g4276"
           transform="translate(139.8857,222.5879)"
           style="fill:#e34c26;fill-opacity:1"><path
             d="m 0,0 c -25.258,15.97 -134.553,89.049 -77.711,124.039 0,0 3.514,8.736 6.308,12.634 0,0 -42.747,-13.606 -44.392,-67.767 -1.347,-44.386 47.54,-80.315 65.236,-91.843 C -28.124,-17.061 -8.934,-5.805 0,0"
             style="fill:#e34c26;fill-opacity:1;fill-rule:nonzero;stroke:none"
             id="path4278"
             inkscape:connector-curvature="0" /></g><g
           id="g4280"
           transform="translate(123.124,399.9546)"
           style="fill:#e34c26;fill-opacity:1"><path
             d="m 0,0 c -43.164,-10.707 -64.551,-67.627 -70.834,-87.701 5.112,-8.64 17.73,-28.002 35.723,-42.55 8.463,28.369 49.362,153.827 98.484,108.472 0,0 9.357,-1.018 13.868,-2.66 0,0 -24.647,37.485 -77.241,24.439"
             style="fill:#e34c26;fill-opacity:1;fill-rule:nonzero;stroke:none"
             id="path4282"
             inkscape:connector-curvature="0" /></g></g></g><g
       id="g4284" /></g></svg>