<?xml version="1.0" encoding="UTF-8"?>
<!DOCTYPE svg PUBLIC "-//W3C//DTD SVG 1.1//EN" "http://www.w3.org/Graphics/SVG/1.1/DTD/svg11.dtd">
<!-- Creator: CorelDRAW X8 -->
<svg xmlns="http://www.w3.org/2000/svg" xml:space="preserve" width="85.6358mm" height="84.0005mm" version="1.1" style="shape-rendering:geometricPrecision; text-rendering:geometricPrecision; image-rendering:optimizeQuality; fill-rule:evenodd; clip-rule:evenodd" viewBox="0 0 612 600" xmlns:xlink="http://www.w3.org/1999/xlink">
 <defs>
  <style type="text/css">
   <![CDATA[
    .fil5 {fill:none}
    .fil4 {fill:url(#id0)}
    .fil2 {fill:url(#id1)}
    .fil3 {fill:url(#id2)}
    .fil0 {fill:url(#id3)}
    .fil1 {fill:url(#id4)}
   ]]>
  </style>
  <linearGradient id="id0" gradientUnits="userSpaceOnUse" x1="498.906" y1="514.246" x2="445.97" y2="230.663">
   <stop offset="0" style="stop-opacity:1; stop-color:#EE1389"/>
   <stop offset="1" style="stop-opacity:1; stop-color:#FA70A4"/>
  </linearGradient>
  <linearGradient id="id1" gradientUnits="userSpaceOnUse" x1="26.2672" y1="247.678" x2="234.228" y2="455.638">
   <stop offset="0" style="stop-opacity:1; stop-color:#EE1389"/>
   <stop offset="0.678431" style="stop-opacity:1; stop-color:#F44196"/>
   <stop offset="1" style="stop-opacity:1; stop-color:#FA70A4"/>
  </linearGradient>
  <linearGradient id="id2" gradientUnits="userSpaceOnUse" xlink:href="#id0" x1="173.73" y1="563.4" x2="421.393" y2="416.882">
  </linearGradient>
  <linearGradient id="id3" gradientUnits="userSpaceOnUse" xlink:href="#id0" x1="571.785" y1="202.956" x2="286.694" y2="157.234">
  </linearGradient>
  <linearGradient id="id4" gradientUnits="userSpaceOnUse" xlink:href="#id0" x1="288.109" y1="26.483" x2="150.098" y2="282.653">
  </linearGradient>
 </defs>
 <g id="Capa_x0020_1">
  <metadata id="CorelCorpID_0Corel-Layer"/>
  <path class="fil0" d="M585 360l0 0c0,0 67,-91 -10,-204 -54,-80 -176,-91 -242,-91 -27,0 -45,2 -45,2l0 0c0,0 -75,44 -69,107 -2,-1 -4,-1 -4,-1l-6 16c0,1 15,-1 21,-1 0,0 0,-1 1,-1 3,0 8,0 13,0 87,-5 397,-13 335,138 0,0 6,23 6,35z"/>
  <path class="fil1" d="M250 7c-133,33 -184,239 -184,239 0,0 15,79 70,99 5,9 19,21 19,16 0,-3 1,-9 3,-15 10,-36 119,-406 251,-284 0,0 24,2 35,7 0,0 -45,-69 -140,-69 -17,0 -35,2 -54,7l0 0z"/>
  <path class="fil2" d="M0 280c-4,137 180,242 180,242 0,0 86,7 118,-46 10,-3 24,-8 20,-8 -3,-1 -14,-7 -21,-11 -52,-32 -348,-225 -201,-316 0,0 9,-22 16,-31 0,0 -108,34 -112,170z"/>
  <path class="fil3" d="M91 465c0,0 -19,-15 -27,-24 0,0 5,113 136,153 131,39 280,-111 280,-111 0,0 35,-95 -25,-136 0,0 -310,299 -364,118l0 0z"/>
  <path class="fil4" d="M381 570c0,0 -20,12 -31,16 0,0 107,35 190,-74 72,-95 13,-253 -3,-292 -37,-19 -89,-28 -140,-32 0,0 0,0 0,-1 1,4 172,395 -16,383l0 0z"/>
  <polygon class="fil5" points="288,67 288,67 "/>
  <polygon class="fil5" points="381,570 381,570 "/>
  <path class="fil5" d="M397 187c0,0 0,0 0,0 0,0 0,0 0,0l0 0z"/>
  <polygon class="fil5" points="91,465 91,465 "/>
  <polygon class="fil5" points="250,7 250,7 "/>
 </g>
</svg>