<?xml version="1.0" encoding="utf-8"?>
<svg version="1.1" xmlns="http://www.w3.org/2000/svg" xmlns:xlink="http://www.w3.org/1999/xlink" x="0px" y="0px"
	 viewBox="0 0 216 180" enable-background="new 0 0 216 180" xml:space="preserve">
<path fill="#333" d="M212,24H94.1408L79.328,1.7813C78.586,0.668,77.338,0,76,0H4C1.7912,0,0,1.7893,0,4v24v16v116.0117
	C0,171.0353,8.9608,180,19.9764,180h176.0472C207.0392,180,216,171.0353,216,160.0117V44V28C216,25.7893,214.2088,24,212,24z
	 M208,40H8v-8h84h116V40z M8,8h65.8592l10.666,16H8V8z M208,160.0117C208,166.6213,202.6268,172,196.0236,172H19.9764
	C13.3732,172,8,166.6213,8,160.0117V48h200V160.0117z"/>
</svg>
